<svg width="512" height="512" viewBox="0 0 512 512" style="color:#22ECE5" xmlns="http://www.w3.org/2000/svg" class="h-full w-full"><rect width="512" height="512" x="0" y="0" rx="30" fill="transparent" stroke="transparent" stroke-width="0" stroke-opacity="100%" paint-order="stroke"></rect><svg width="256px" height="256px" viewBox="0 0 24 24" fill="#22ECE5" x="128" y="128" role="img" style="display:inline-block;vertical-align:middle" xmlns="http://www.w3.org/2000/svg"><g fill="#22ECE5"><g fill="none" stroke="#22ECE5" stroke-linecap="round" stroke-width="1.5"><path d="M8.5 4H6a2 2 0 0 0-2 2v14a2 2 0 0 0 2 2h6m3.5-18H18a2 2 0 0 1 2 2v9"/><path d="M8 6.4V4.5a.5.5 0 0 1 .5-.5c.276 0 .504-.224.552-.496C9.2 2.652 9.774 1 12 1s2.8 1.652 2.948 2.504c.048.272.276.496.552.496a.5.5 0 0 1 .5.5v1.9a.6.6 0 0 1-.6.6H8.6a.6.6 0 0 1-.6-.6Z"/><path stroke-linejoin="round" d="m15.5 20.5l2 2l5-5"/></g></g></svg></svg>