<svg width="512" height="512" viewBox="0 0 512 512" style="color:#D44078" xmlns="http://www.w3.org/2000/svg" class="h-full w-full"><rect width="512" height="512" x="0" y="0" rx="30" fill="transparent" stroke="transparent" stroke-width="0" stroke-opacity="100%" paint-order="stroke"></rect><svg width="256px" height="256px" viewBox="0 0 24 24" fill="#D44078" x="128" y="128" role="img" style="display:inline-block;vertical-align:middle" xmlns="http://www.w3.org/2000/svg"><g fill="#D44078"><path fill="currentColor" fill-rule="evenodd" d="M22 12c0-5.523-4.477-10-10-10S2 6.477 2 12s4.477 10 10 10s10-4.477 10-10ZM12 6.25a.75.75 0 0 1 .75.75v6a.75.75 0 0 1-1.5 0V7a.75.75 0 0 1 .75-.75ZM12 17a1 1 0 1 0 0-2a1 1 0 0 0 0 2Z" clip-rule="evenodd"/></g></svg></svg>