<svg width="512" height="512" viewBox="0 0 512 512" style="color:#8b1d79" xmlns="http://www.w3.org/2000/svg" class="h-full w-full"><rect width="512" height="512" x="0" y="0" rx="30" fill="transparent" stroke="transparent" stroke-width="0" stroke-opacity="100%" paint-order="stroke"></rect><svg width="256px" height="256px" viewBox="0 0 48 48" fill="#8b1d79" x="128" y="128" role="img" style="display:inline-block;vertical-align:middle" xmlns="http://www.w3.org/2000/svg"><g fill="#8b1d79"><path fill="currentColor" d="M41.56 26.13a1.251 1.251 0 0 0 1.57.81c.65-.21 1.02-.91.81-1.57l-.001-.003C43.85 25.1 38.841 10 23.999 10C9.16 10 4.15 25.1 4.062 25.367l-.001.003c-.21.66.15 1.36.81 1.57c.66.21 1.36-.15 1.57-.81c.18-.56 4.51-13.63 17.56-13.63c13.05 0 17.38 13.07 17.56 13.63ZM17.5 27a6.5 6.5 0 1 1 13 0a6.5 6.5 0 0 1-13 0Zm6.5-9a9 9 0 1 0 0 18a9 9 0 0 0 0-18Z"/></g></svg></svg>