<svg width="512" height="512" viewBox="0 0 512 512" style="color:51F0EB" xmlns="http://www.w3.org/2000/svg" class="h-full w-full"><rect width="512" height="512" x="0" y="0" rx="30" fill="transparent" stroke="transparent" stroke-width="0" stroke-opacity="100%" paint-order="stroke"></rect><svg width="256px" height="256px" viewBox="0 0 16 16" fill="51F0EB" x="128" y="128" role="img" style="display:inline-block;vertical-align:middle" xmlns="http://www.w3.org/2000/svg"><g fill="51F0EB"><path fill="currentColor" d="M3.612 15.443c-.386.198-.824-.149-.746-.592l.83-4.73L.173 6.765c-.329-.314-.158-.888.283-.95l4.898-.696L7.538.792c.197-.39.73-.39.927 0l2.184 4.327l4.898.696c.441.062.612.636.282.95l-3.522 3.356l.83 4.73c.078.443-.36.79-.746.592L8 13.187l-4.389 2.256z"/></g></svg></svg>