<svg width="512" height="512" viewBox="0 0 512 512" style="color:#8b1d79" xmlns="http://www.w3.org/2000/svg" class="h-full w-full"><rect width="512" height="512" x="0" y="0" rx="30" fill="transparent" stroke="transparent" stroke-width="0" stroke-opacity="100%" paint-order="stroke"></rect><svg width="256px" height="256px" viewBox="0 0 24 24" fill="#8b1d79" x="128" y="128" role="img" style="display:inline-block;vertical-align:middle" xmlns="http://www.w3.org/2000/svg"><g fill="#8b1d79"><path fill="currentColor" d="M12 2A10.13 10.13 0 0 0 2 12a10 10 0 0 0 4 7.92V20h.1a9.7 9.7 0 0 0 11.8 0h.1v-.08A10 10 0 0 0 22 12A10.13 10.13 0 0 0 12 2zM8.07 18.93A3 3 0 0 1 11 16.57h2a3 3 0 0 1 2.93 2.36a7.75 7.75 0 0 1-7.86 0zm9.54-1.29A5 5 0 0 0 13 14.57h-2a5 5 0 0 0-4.61 3.07A8 8 0 0 1 4 12a8.1 8.1 0 0 1 8-8a8.1 8.1 0 0 1 8 8a8 8 0 0 1-2.39 5.64z"/><path fill="currentColor" d="M12 6a3.91 3.91 0 0 0-4 4a3.91 3.91 0 0 0 4 4a3.91 3.91 0 0 0 4-4a3.91 3.91 0 0 0-4-4zm0 6a1.91 1.91 0 0 1-2-2a1.91 1.91 0 0 1 2-2a1.91 1.91 0 0 1 2 2a1.91 1.91 0 0 1-2 2z"/></g></svg></svg>